<svg version="1.1" xmlns="http://www.w3.org/2000/svg" xmlns:xlink="http://www.w3.org/1999/xlink" width="564.2695" height="423.5" viewBox="0,0,564.2695,423.5"><g transform="translate(30.51949,33.37494)"><g data-paper-data="{&quot;isPaintingLayer&quot;:true}" fill-rule="nonzero" stroke-linecap="butt" stroke-linejoin="miter" stroke-miterlimit="10" stroke-dasharray="" stroke-dashoffset="0" style="mix-blend-mode: normal"><path d="M27.48051,4.19197v-17.5h472v17.5z" fill="#5c5c5c" stroke="#515151" stroke-width="4.5"/><path d="M-3.01949,45.19197v-15.5h8v15.5z" fill="#5c5c5c" stroke="#515151" stroke-width="4.5"/><path d="M11.48051,127.80951v-64.5h61.5v64.5z" fill="#5c5c5c" stroke="#515151" stroke-width="4.5"/><path d="M-0.01949,127.69197v-85h19v85z" fill="#5c5c5c" stroke="#515151" stroke-width="4.5"/><path d="M459.9466,177.99794v-18h17.5v18z" fill="#5c5c5c" stroke="#515151" stroke-width="4.5"/><path d="M425.4466,219.99794v-21h23v21z" fill="#5c5c5c" stroke="#515151" stroke-width="4.5"/><path d="M440.50003,222.99794v-44h33.5v44z" fill="#5c5c5c" stroke="#515151" stroke-width="4.5"/><path d="M-3.96246,381.43569v-37h531v37z" fill="#5c5c5c" stroke="#515151" stroke-width="4.5"/><path d="M-30.51949,366.93697v-379.87988h30.54354v379.87988z" fill="#006c82" stroke="#000000" stroke-width="0"/><path d="M311.50001,305.87505v-61h16v61z" fill="#5c5c5c" stroke="#515151" stroke-width="4.5"/><path d="M244.50003,282.87505v-132h20v132z" fill="#5c5c5c" stroke="#515151" stroke-width="4.5"/><path d="M311.50001,242.87505v-21h187v21z" fill="#5c5c5c" stroke="#515151" stroke-width="4.5"/><path d="M476.50001,387.87507v-419h55v419z" fill="#5c5c5c" stroke="#828282" stroke-width="4.5"/><path d="M244.4865,153.49794v-19.5h170.5v19.5z" fill="#5c5c5c" stroke="#515151" stroke-width="4.5"/><path d="M178.76194,132.314v-15.5h14.5v15.5z" fill="#5c5c5c" stroke="#515151" stroke-width="4.5"/><path d="M109.58559,131.68829v-36h6.5v36z" fill="#5c5c5c" stroke="#515151" stroke-width="4.5"/></g></g></svg>