<svg version="1.1" xmlns="http://www.w3.org/2000/svg" xmlns:xlink="http://www.w3.org/1999/xlink" width="188.75555" height="155.43412" viewBox="0,0,188.75555,155.43412"><g transform="translate(-153.8805,-136.56588)"><g data-paper-data="{&quot;isPaintingLayer&quot;:true}" fill-rule="nonzero" stroke-linejoin="miter" stroke-miterlimit="10" stroke-dasharray="" stroke-dashoffset="0" style="mix-blend-mode: normal"><path d="M165.25,207v84" fill="none" stroke="#000000" stroke-width="2" stroke-linecap="round"/><path d="M165.25859,200.41305c0,0 29.7399,-3.34582 46.68078,-11.38555c16.94088,-8.03974 69.04808,-37.13428 101.33144,-42.12655c32.28336,-4.99227 25.99702,-1.32831 25.99702,-1.32831" fill="none" stroke="#000000" stroke-width="2" stroke-linecap="round"/><path d="M153.88051,201.18866c0,-6.34299 5.142,-11.48499 11.48499,-11.48499c6.34299,0 11.48499,5.142 11.48499,11.48499c0,6.34299 -5.142,11.48499 -11.48499,11.48499c-6.34299,0 -11.48499,-5.142 -11.48499,-11.48499z" fill="#17ff00" stroke="none" stroke-width="0" stroke-linecap="butt"/><path d="M338.60368,162.79696v-25.98108" fill="none" stroke="#474747" stroke-width="0.5" stroke-linecap="round"/><path d="M334.57129,160.91519c0,-2.22702 1.80536,-4.03238 4.03238,-4.03238c2.22702,0 4.03238,1.80536 4.03238,4.03238c0,2.22702 -1.80536,4.03238 -4.03238,4.03238c-2.22702,0 -4.03238,-1.80536 -4.03238,-4.03238z" fill="#e00000" stroke="none" stroke-width="0.5" stroke-linecap="butt"/><path d="" fill="#9966ff" stroke="none" stroke-width="0.5" stroke-linecap="butt"/><path d="" fill="#9966ff" stroke="none" stroke-width="0.5" stroke-linecap="butt"/><path d="" fill="#9966ff" stroke="none" stroke-width="0.5" stroke-linecap="butt"/><path d="" fill="#9966ff" stroke="none" stroke-width="0.5" stroke-linecap="butt"/><path d="" fill="#9966ff" stroke="none" stroke-width="0.5" stroke-linecap="butt"/><path d="" fill="#9966ff" stroke="none" stroke-width="0.5" stroke-linecap="butt"/><path d="" fill="#9966ff" stroke="none" stroke-width="0.5" stroke-linecap="butt"/><path d="" fill="#9966ff" stroke="none" stroke-width="0.5" stroke-linecap="butt"/><path d="" fill="#9966ff" stroke="none" stroke-width="0.5" stroke-linecap="butt"/></g></g></svg>