<svg version="1.1" xmlns="http://www.w3.org/2000/svg" xmlns:xlink="http://www.w3.org/1999/xlink" width="257.33334" height="109.91667" viewBox="0,0,257.33334,109.91667"><g transform="translate(-92.41667,-115.5)"><g data-paper-data="{&quot;isPaintingLayer&quot;:true}" fill-rule="nonzero" stroke-linejoin="miter" stroke-miterlimit="10" stroke-dasharray="" stroke-dashoffset="0" style="mix-blend-mode: normal"><path d="M344.75,223.16667l-0.33333,-9.33333l-243,-90v19" fill="none" stroke="#000000" stroke-width="4.5" stroke-linecap="round"/><path d="" fill="#9966ff" stroke="none" stroke-width="0.5" stroke-linecap="butt"/><path d="" fill="#9966ff" stroke="none" stroke-width="0.5" stroke-linecap="butt"/><path d="" fill="#9966ff" stroke="none" stroke-width="0.5" stroke-linecap="butt"/><path d="" fill="#9966ff" stroke="none" stroke-width="0.5" stroke-linecap="butt"/><path d="" fill="#9966ff" stroke="none" stroke-width="0.5" stroke-linecap="butt"/><path d="" fill="#9966ff" stroke="none" stroke-width="0.5" stroke-linecap="butt"/><path d="" fill="#9966ff" stroke="none" stroke-width="0.5" stroke-linecap="butt"/><path d="" fill="#9966ff" stroke="none" stroke-width="0.5" stroke-linecap="butt"/><path d="" fill="#9966ff" stroke="none" stroke-width="0.5" stroke-linecap="butt"/><path d="M339.41666,210c0,-2.85347 2.3132,-5.16667 5.16667,-5.16667c2.85347,0 5.16667,2.3132 5.16667,5.16667c0,2.85347 -2.3132,5.16667 -5.16667,5.16667c-2.85347,0 -5.16667,-2.3132 -5.16667,-5.16667z" fill="#ff0000" stroke="none" stroke-width="0" stroke-linecap="butt"/><path d="M92.41667,124.5c0,-4.97056 4.02944,-9 9,-9c4.97056,0 9,4.02944 9,9c0,4.97056 -4.02944,9 -9,9c-4.97056,0 -9,-4.02944 -9,-9z" fill="#35ff00" stroke="none" stroke-width="0" stroke-linecap="butt"/></g></g></svg>