<svg version="1.1" xmlns="http://www.w3.org/2000/svg" xmlns:xlink="http://www.w3.org/1999/xlink" width="223" height="276.45454" viewBox="0,0,223,276.45454"><g transform="translate(-128.5,-41.86745)"><g data-paper-data="{&quot;isPaintingLayer&quot;:true}" fill-rule="nonzero" stroke-linecap="butt" stroke-linejoin="miter" stroke-miterlimit="10" stroke-dasharray="" stroke-dashoffset="0" style="mix-blend-mode: normal"><path d="M131,290c0,-57.5508 0,-186.93277 0,-219c0,-14.71413 11.14767,-25.82199 27,-25.82199c26.61005,0 119.26646,-0.52067 166.01468,-0.81061c18.0379,-0.11187 24.98532,12.06885 24.98532,24.6326c0,29.90804 0,155.32135 0,215c0,19.37539 -5.62596,31.82199 -22,31.82199c-47.79764,0 -152.57581,0 -177,0c-10.98602,0 -19,-8.17517 -19,-25.82199z" fill="#828282" stroke="#000000" stroke-width="5"/><text transform="translate(136.14927,130.57135) scale(0.53961,0.53961)" font-size="40" xml:space="preserve" fill="#ffffff" fill-rule="nonzero" stroke="#ffffff" stroke-width="2" stroke-linecap="butt" stroke-linejoin="miter" stroke-miterlimit="10" stroke-dasharray="" stroke-dashoffset="0" font-family="Sans Serif" font-weight="normal" text-anchor="start" style="mix-blend-mode: normal"><tspan x="0" dy="0">KEEP HOLD OF THE</tspan><tspan x="0" dy="48px">ARROW KEY UNTIL</tspan><tspan x="0" dy="48px">YOU STICK TO THE </tspan><tspan x="0" dy="48px">WALL.</tspan><tspan x="0" dy="48px">OR IT WONT WORK</tspan><tspan x="0" dy="48px"> </tspan><tspan x="0" dy="48px">it will just fail</tspan></text><text transform="translate(163.02097,90.38714) scale(0.76728,0.76728)" font-size="40" xml:space="preserve" fill="#ffffff" fill-rule="nonzero" stroke="#ffffff" stroke-width="2" stroke-linecap="butt" stroke-linejoin="miter" stroke-miterlimit="10" stroke-dasharray="" stroke-dashoffset="0" font-family="Sans Serif" font-weight="normal" text-anchor="start" style="mix-blend-mode: normal"><tspan x="0" dy="0">WallJump</tspan></text></g></g></svg>