<svg version="1.1" xmlns="http://www.w3.org/2000/svg" xmlns:xlink="http://www.w3.org/1999/xlink" width="596" height="408.45722" viewBox="0,0,596,408.45722"><g transform="translate(58,24.22858)"><g data-paper-data="{&quot;isPaintingLayer&quot;:true}" fill-rule="nonzero" stroke-linecap="butt" stroke-linejoin="miter" stroke-miterlimit="10" stroke-dasharray="" stroke-dashoffset="0" style="mix-blend-mode: normal"><path d="M471.10557,381.97864v-399.3994h62.4267v399.3994z" fill="#9a5700" stroke="#754200" stroke-width="4.5"/><path d="M-10.42228,379.97585v-37h531v37z" fill="#9a5700" stroke="#744200" stroke-width="4.5"/><path d="M-21.52478,380.47714v-379.87988h30.54354v379.87988z" fill="#9a5700" stroke="#000000" stroke-width="0"/><path d="M-58,6.77142v-31h596v31z" fill="#d17600" stroke="none" stroke-width="0"/><path d="M377.52518,340.54464v-7.07483h20.68027v7.07483z" fill="#925300" stroke="#754200" stroke-width="4.5"/><path d="M368.49473,168.54019v-14h102v14z" fill="#925300" stroke="#754200" stroke-width="4.5"/><path d="M103.66667,223.0417v-9.66666h29.66667v9.66666z" fill="#925300" stroke="#754200" stroke-width="3.5"/><path d="M27.60872,313.66031v-12.01201h46.54655v12.01201z" fill="#925300" stroke="#754200" stroke-width="3.5"/><path d="M32.11322,256.60326v-10.51051h42.04204v10.51051z" fill="#925300" stroke="#754200" stroke-width="3.5"/><path d="M114.6958,279.12578v-7.50751h37.53754v7.50751z" fill="#925300" stroke="#754200" stroke-width="3.5"/><path d="M134.21532,307.65432v-198.1982h18.01802v198.1982z" fill="#925300" stroke="#754200" stroke-width="4.5"/><path d="M-25.4093,339.18585v-330.33033h80.04505v330.33033z" fill="#925300" stroke="#754200" stroke-width="4.5"/><path d="M96.67779,109.45611v-33.03303h55.55556v33.03303z" fill="#925300" stroke="#754200" stroke-width="4.5"/><path d="M83,174.04169v-5.66667h21.33333v5.66667z" fill="#925300" stroke="#754200" stroke-width="2.5"/></g></g></svg>