<svg version="1.1" xmlns="http://www.w3.org/2000/svg" xmlns:xlink="http://www.w3.org/1999/xlink" width="564.2695" height="423.5" viewBox="0,0,564.2695,423.5"><g transform="translate(30.51949,33.37493)"><g data-paper-data="{&quot;isPaintingLayer&quot;:true}" fill-rule="nonzero" stroke-linejoin="miter" stroke-miterlimit="10" stroke-dasharray="" stroke-dashoffset="0" style="mix-blend-mode: normal"><g><path d="M175.13948,185.6071c-0.78801,0.64897 -1.63081,0.92736 -1.88245,0.62181c-0.25164,-0.30555 0.18317,-1.07935 0.97118,-1.72832c0.78801,-0.64897 1.63081,-0.92736 1.88245,-0.62181c0.25164,0.30555 -0.18317,1.07935 -0.97118,1.72832z" data-paper-data="{&quot;index&quot;:null}" fill="#da0000" stroke="#a90000" stroke-width="1" stroke-linecap="butt"/><path d="M171.62915,197.16492v-8.29893" fill="none" stroke="#157300" stroke-width="2" stroke-linecap="round"/><path d="M172.3836,190.48805c0,1.02085 -0.32089,1.8484 -0.71672,1.8484c-0.39584,0 -0.71672,-0.82756 -0.71672,-1.8484c0,-1.02085 0.32089,-1.8484 0.71672,-1.8484c0.39584,0 0.71672,0.82755 0.71672,1.8484z" fill="#da0000" stroke="#a90000" stroke-width="1" stroke-linecap="butt"/><path d="M173.99061,189.84087c0.3845,0.94566 0.39894,1.83314 0.03225,1.98223c-0.36668,0.14909 -0.97564,-0.49666 -1.36014,-1.44232c-0.3845,-0.94566 -0.39894,-1.83314 -0.03226,-1.98223c0.36668,-0.14909 0.97565,0.49666 1.36015,1.44232z" fill="#da0000" stroke="#a90000" stroke-width="1" stroke-linecap="butt"/><path d="M175.29174,187.95348c0.9236,0.43483 1.53565,1.07765 1.36704,1.43578c-0.16861,0.35813 -1.05402,0.29595 -1.97762,-0.13888c-0.92361,-0.43483 -1.53564,-1.07765 -1.36704,-1.43579c0.16861,-0.35813 1.05401,-0.29595 1.97762,0.13888z" fill="#da0000" stroke="#a90000" stroke-width="1" stroke-linecap="butt"/><path d="M174.81228,186.15035c1.02031,-0.03316 1.85784,0.26069 1.8707,0.65632c0.01286,0.39562 -0.80385,0.74322 -1.82415,0.77638c-1.02031,0.03316 -1.85784,-0.2607 -1.8707,-0.65632c-0.01286,-0.39562 0.80385,-0.74322 1.82415,-0.77637z" fill="#da0000" stroke="#a90000" stroke-width="1" stroke-linecap="butt"/><path d="M170.64755,184.14851c0,-1.02085 0.32089,-1.8484 0.71672,-1.8484c0.39583,0 0.71672,0.82755 0.71672,1.8484c0,1.02085 -0.32089,1.8484 -0.71672,1.8484c-0.39584,0 -0.71672,-0.82755 -0.71672,-1.8484z" data-paper-data="{&quot;index&quot;:null}" fill="#da0000" stroke="#a90000" stroke-width="1" stroke-linecap="butt"/><path d="M169.04054,184.79569c-0.3845,-0.94566 -0.39894,-1.83314 -0.03226,-1.98223c0.36669,-0.14909 0.97564,0.49666 1.36014,1.44232c0.3845,0.94566 0.39894,1.83314 0.03226,1.98223c-0.36669,0.14909 -0.97564,-0.49666 -1.36014,-1.44232z" data-paper-data="{&quot;index&quot;:null}" fill="#da0000" stroke="#a90000" stroke-width="1" stroke-linecap="butt"/><path d="M168.04118,186.68308c-0.9236,-0.43483 -1.53564,-1.07765 -1.36703,-1.43579c0.16861,-0.35813 1.05401,-0.29595 1.97762,0.13887c0.92361,0.43483 1.53564,1.07765 1.36704,1.43579c-0.1686,0.35813 -1.05402,0.29595 -1.97763,-0.13887z" data-paper-data="{&quot;index&quot;:null}" fill="#da0000" stroke="#a90000" stroke-width="1" stroke-linecap="butt"/><path d="M168.21886,188.48621c-1.0203,0.03316 -1.85784,-0.2607 -1.8707,-0.65632c-0.01286,-0.39562 0.80385,-0.74322 1.82415,-0.77637c1.0203,-0.03316 1.85784,0.26069 1.8707,0.65632c0.01286,0.39562 -0.80384,0.74322 -1.82415,0.77638z" data-paper-data="{&quot;index&quot;:null}" fill="#da0000" stroke="#a90000" stroke-width="1" stroke-linecap="butt"/><path d="M172.35694,184.56549c0.3732,-0.95018 0.9744,-1.60314 1.34284,-1.45844c0.36844,0.1447 0.36458,1.03229 -0.00861,1.98248c-0.37319,0.95018 -0.9744,1.60314 -1.34284,1.45844c-0.36844,-0.1447 -0.36459,-1.03229 0.00861,-1.98248z" data-paper-data="{&quot;index&quot;:null}" fill="#da0000" stroke="#a90000" stroke-width="1" stroke-linecap="butt"/><path d="M169.48112,190.05834c-0.78801,0.64897 -1.63081,0.92737 -1.88245,0.62182c-0.25164,-0.30555 0.18317,-1.07935 0.97117,-1.72832c0.78801,-0.64897 1.63082,-0.92736 1.88246,-0.62181c0.25164,0.30555 -0.18317,1.07934 -0.97118,1.72831z" data-paper-data="{&quot;index&quot;:null}" fill="#da0000" stroke="#a90000" stroke-width="1" stroke-linecap="butt"/><path d="M170.76047,191.09913c-0.5511,0.85931 -1.26797,1.38268 -1.60117,1.16899c-0.3332,-0.21369 -0.15655,-1.08353 0.39455,-1.94284c0.5511,-0.85931 1.26796,-1.38268 1.60116,-1.16899c0.3332,0.21369 0.15656,1.08353 -0.39454,1.94284z" data-paper-data="{&quot;index&quot;:null}" fill="#da0000" stroke="#a90000" stroke-width="1" stroke-linecap="butt"/><path d="M169.99613,187.81673c0,-0.88542 0.71778,-1.60321 1.6032,-1.60321c0.88542,0 1.6032,0.71778 1.6032,1.60321c0,0.88542 -0.71778,1.6032 -1.6032,1.6032c-0.88542,0 -1.6032,-0.71778 -1.6032,-1.6032z" fill="#832c00" stroke="#722600" stroke-width="1" stroke-linecap="butt"/></g><g><path d="M117.27948,179.1644c-1.15909,0.95458 -2.39878,1.36407 -2.76892,0.91463c-0.37014,-0.44944 0.26943,-1.58762 1.42852,-2.5422c1.15909,-0.95458 2.39878,-1.36407 2.76891,-0.91463c0.37014,0.44944 -0.26943,1.58763 -1.42852,2.54221z" data-paper-data="{&quot;index&quot;:null}" fill="#da0000" stroke="#a90000" stroke-width="1" stroke-linecap="butt"/><path d="M112.1161,183.95792v12.20699" fill="none" stroke="#157300" stroke-width="2" stroke-linecap="round"/><path d="M113.22583,186.34384c0,1.50157 -0.472,2.71883 -1.05424,2.71883c-0.58224,0 -1.05424,-1.21726 -1.05424,-2.71883c0,-1.50157 0.472,-2.71883 1.05424,-2.71883c0.58224,0 1.05424,1.21726 1.05424,2.71883z" fill="#da0000" stroke="#a90000" stroke-width="1" stroke-linecap="butt"/><path d="M115.58959,185.39189c0.56557,1.39099 0.58681,2.69639 0.04745,2.91568c-0.53936,0.2193 -1.43508,-0.73054 -2.00064,-2.12152c-0.56557,-1.39099 -0.58681,-2.69639 -0.04745,-2.91568c0.53936,-0.2193 1.43508,0.73054 2.00065,2.12152z" fill="#da0000" stroke="#a90000" stroke-width="1" stroke-linecap="butt"/><path d="M117.50344,182.6157c1.35854,0.63959 2.25879,1.58513 2.01079,2.11191c-0.248,0.52678 -1.55036,0.43532 -2.9089,-0.20427c-1.35854,-0.63959 -2.2588,-1.58513 -2.01079,-2.11191c0.24801,-0.52678 1.55036,-0.43532 2.90891,0.20427z" fill="#da0000" stroke="#a90000" stroke-width="1" stroke-linecap="butt"/><path d="M116.7982,179.96347c1.50078,-0.04877 2.73272,0.38346 2.75163,0.96539c0.01891,0.58193 -1.18239,1.09321 -2.68316,1.14198c-1.50078,0.04877 -2.73273,-0.38345 -2.75163,-0.96538c-0.01891,-0.58193 1.18238,-1.09322 2.68316,-1.14198z" fill="#da0000" stroke="#a90000" stroke-width="1" stroke-linecap="butt"/><path d="M110.67225,177.01894c0,-1.50157 0.472,-2.71883 1.05424,-2.71883c0.58224,0 1.05424,1.21726 1.05424,2.71883c0,1.50157 -0.472,2.71883 -1.05424,2.71883c-0.58224,0 -1.05424,-1.21726 -1.05424,-2.71883z" data-paper-data="{&quot;index&quot;:null}" fill="#da0000" stroke="#a90000" stroke-width="1" stroke-linecap="butt"/><path d="M108.30849,177.97088c-0.56557,-1.39099 -0.5868,-2.69639 -0.04745,-2.91568c0.53936,-0.2193 1.43508,0.73054 2.00064,2.12152c0.56557,1.39099 0.58681,2.69639 0.04745,2.91568c-0.53936,0.2193 -1.43509,-0.73054 -2.00065,-2.12152z" data-paper-data="{&quot;index&quot;:null}" fill="#da0000" stroke="#a90000" stroke-width="1" stroke-linecap="butt"/><path d="M106.83852,180.74707c-1.35854,-0.63959 -2.2588,-1.58513 -2.01079,-2.11191c0.24801,-0.52678 1.55036,-0.43532 2.90891,0.20428c1.35854,0.63959 2.2588,1.58513 2.0108,2.11191c-0.24801,0.52678 -1.55037,0.43532 -2.90891,-0.20427z" data-paper-data="{&quot;index&quot;:null}" fill="#da0000" stroke="#a90000" stroke-width="1" stroke-linecap="butt"/><path d="M107.09987,183.39931c-1.50078,0.04877 -2.73272,-0.38346 -2.75163,-0.96539c-0.01891,-0.58193 1.18238,-1.09321 2.68316,-1.14198c1.50078,-0.04877 2.73273,0.38346 2.75164,0.96539c0.01891,0.58193 -1.18238,1.09321 -2.68316,1.14198z" data-paper-data="{&quot;index&quot;:null}" fill="#da0000" stroke="#a90000" stroke-width="1" stroke-linecap="butt"/><path d="M113.18662,177.63229c0.54894,-1.39763 1.43326,-2.35809 1.9752,-2.14524c0.54194,0.21285 0.53627,1.51841 -0.01266,2.91604c-0.54894,1.39763 -1.43326,2.35809 -1.9752,2.14524c-0.54194,-0.21285 -0.53627,-1.51841 0.01266,-2.91604z" data-paper-data="{&quot;index&quot;:null}" fill="#da0000" stroke="#a90000" stroke-width="1" stroke-linecap="butt"/><path d="M108.95653,185.71179c-1.15909,0.95457 -2.39878,1.36407 -2.76891,0.91463c-0.37014,-0.44944 0.26942,-1.58763 1.42851,-2.54221c1.15909,-0.95457 2.39878,-1.36406 2.76892,-0.91463c0.37014,0.44944 -0.26943,1.58763 -1.42852,2.5422z" data-paper-data="{&quot;index&quot;:null}" fill="#da0000" stroke="#a90000" stroke-width="1" stroke-linecap="butt"/><path d="M110.83834,187.24269c-0.81062,1.26396 -1.86507,2.0338 -2.35518,1.71948c-0.4901,-0.31432 -0.23028,-1.59377 0.58034,-2.85774c0.81062,-1.26396 1.86507,-2.03379 2.35517,-1.71947c0.4901,0.31432 0.23028,1.59377 -0.58034,2.85773z" data-paper-data="{&quot;index&quot;:null}" fill="#da0000" stroke="#a90000" stroke-width="1" stroke-linecap="butt"/><path d="M109.71407,182.41456c0,-1.30238 1.05579,-2.35817 2.35817,-2.35817c1.30238,0 2.35817,1.05579 2.35817,2.35817c0,1.30238 -1.05579,2.35817 -2.35817,2.35817c-1.30238,0 -2.35817,-1.05579 -2.35817,-2.35817z" fill="#832c00" stroke="#722600" stroke-width="1" stroke-linecap="butt"/></g><g><path d="M155.30673,171.24353c-1.65452,1.36259 -3.42407,1.94711 -3.95243,1.30557c-0.52835,-0.64154 0.38459,-2.26621 2.03911,-3.62881c1.65452,-1.36259 3.42407,-1.94711 3.95242,-1.30557c0.52835,0.64154 -0.38459,2.26621 -2.0391,3.62881z" data-paper-data="{&quot;index&quot;:null}" fill="#da0000" stroke="#a90000" stroke-width="1" stroke-linecap="butt"/><path d="M147.93639,178.08593v17.42458" fill="none" stroke="#157300" stroke-width="2" stroke-linecap="round"/><path d="M149.52042,181.49165c0,2.14338 -0.67374,3.88093 -1.50485,3.88093c-0.83111,0 -1.50485,-1.73755 -1.50485,-3.88093c0,-2.14338 0.67374,-3.88093 1.50485,-3.88093c0.8311,0 1.50485,1.73755 1.50485,3.88093z" fill="#da0000" stroke="#a90000" stroke-width="1" stroke-linecap="butt"/><path d="M152.89452,180.13282c0.8073,1.98553 0.83762,3.84889 0.06772,4.16192c-0.7699,0.31304 -2.04847,-1.04279 -2.85577,-3.02832c-0.8073,-1.98553 -0.83763,-3.84889 -0.06773,-4.16192c0.76989,-0.31304 2.04848,1.04279 2.85578,3.02832z" fill="#da0000" stroke="#a90000" stroke-width="1" stroke-linecap="butt"/><path d="M155.62642,176.17001c1.93922,0.91298 3.22427,2.26265 2.87026,3.01459c-0.35401,0.75194 -2.21304,0.62139 -4.15225,-0.29159c-1.93921,-0.91298 -3.22427,-2.26265 -2.87025,-3.01459c0.35401,-0.75194 2.21303,-0.62139 4.15225,0.29159z" fill="#da0000" stroke="#a90000" stroke-width="1" stroke-linecap="butt"/><path d="M154.61974,172.38414c2.14225,-0.06961 3.90076,0.54735 3.92775,1.37802c0.02699,0.83066 -1.68777,1.56048 -3.83001,1.63009c-2.14225,0.06961 -3.90076,-0.54735 -3.92775,-1.37802c-0.02699,-0.83066 1.68777,-1.56048 3.83001,-1.63009z" fill="#da0000" stroke="#a90000" stroke-width="1" stroke-linecap="butt"/><path d="M145.87539,168.18104c0,-2.14338 0.67375,-3.88093 1.50485,-3.88093c0.83111,0 1.50485,1.73755 1.50485,3.88093c0,2.14338 -0.67374,3.88093 -1.50485,3.88093c-0.8311,0 -1.50485,-1.73755 -1.50485,-3.88093z" data-paper-data="{&quot;index&quot;:null}" fill="#da0000" stroke="#a90000" stroke-width="1" stroke-linecap="butt"/><path d="M142.5013,169.53987c-0.8073,-1.98553 -0.83762,-3.84889 -0.06772,-4.16192c0.76989,-0.31304 2.04847,1.04279 2.85577,3.02832c0.8073,1.98553 0.83763,3.84889 0.06773,4.16192c-0.76989,0.31304 -2.04848,-1.04279 -2.85578,-3.02832z" data-paper-data="{&quot;index&quot;:null}" fill="#da0000" stroke="#a90000" stroke-width="1" stroke-linecap="butt"/><path d="M140.40303,173.50268c-1.93922,-0.91298 -3.22426,-2.26265 -2.87025,-3.01459c0.35401,-0.75194 2.21303,-0.62139 4.15225,0.29159c1.93921,0.91298 3.22427,2.26265 2.87026,3.01459c-0.35401,0.75194 -2.21304,0.62139 -4.15225,-0.29159z" data-paper-data="{&quot;index&quot;:null}" fill="#da0000" stroke="#a90000" stroke-width="1" stroke-linecap="butt"/><path d="M140.77609,177.28855c-2.14225,0.06961 -3.90076,-0.54735 -3.92775,-1.37802c-0.02699,-0.83066 1.68777,-1.56048 3.83001,-1.63009c2.14225,-0.06961 3.90076,0.54735 3.92776,1.37802c0.02699,0.83066 -1.68777,1.56048 -3.83002,1.63009z" data-paper-data="{&quot;index&quot;:null}" fill="#da0000" stroke="#a90000" stroke-width="1" stroke-linecap="butt"/><path d="M149.46445,169.05655c0.78357,-1.99502 2.04587,-3.36599 2.81945,-3.06217c0.77358,0.30383 0.76549,2.16742 -0.01808,4.16244c-0.78357,1.99502 -2.04587,3.366 -2.81946,3.06217c-0.77358,-0.30383 -0.76548,-2.16742 0.01808,-4.16244z" data-paper-data="{&quot;index&quot;:null}" fill="#da0000" stroke="#a90000" stroke-width="1" stroke-linecap="butt"/><path d="M143.42633,180.58944c-1.65452,1.36259 -3.42407,1.94711 -3.95242,1.30557c-0.52835,-0.64154 0.38458,-2.26622 2.0391,-3.62881c1.65451,-1.36259 3.42407,-1.9471 3.95243,-1.30556c0.52835,0.64154 -0.38459,2.26622 -2.03911,3.62881z" data-paper-data="{&quot;index&quot;:null}" fill="#da0000" stroke="#a90000" stroke-width="1" stroke-linecap="butt"/><path d="M146.11246,182.77469c-1.1571,1.80421 -2.66225,2.90309 -3.36184,2.45442c-0.69959,-0.44867 -0.32871,-2.27499 0.8284,-4.07921c1.1571,-1.80421 2.66225,-2.9031 3.36184,-2.45443c0.69959,0.44867 0.32871,2.275 -0.8284,4.07921z" data-paper-data="{&quot;index&quot;:null}" fill="#da0000" stroke="#a90000" stroke-width="1" stroke-linecap="butt"/><path d="M144.50766,175.8829c0,-1.85905 1.50706,-3.36612 3.36612,-3.36612c1.85905,0 3.36611,1.50707 3.36611,3.36612c0,1.85905 -1.50706,3.36611 -3.36611,3.36611c-1.85905,0 -3.36612,-1.50705 -3.36612,-3.36611z" fill="#832c00" stroke="#722600" stroke-width="1" stroke-linecap="butt"/></g><g><path d="M91.13948,274.1071c-0.78801,0.64897 -1.63081,0.92736 -1.88245,0.62181c-0.25164,-0.30555 0.18317,-1.07935 0.97118,-1.72832c0.78801,-0.64897 1.63081,-0.92736 1.88245,-0.62181c0.25164,0.30555 -0.18317,1.07935 -0.97118,1.72832z" data-paper-data="{&quot;index&quot;:null}" fill="#da0000" stroke="#a90000" stroke-width="1" stroke-linecap="butt"/><path d="M87.62916,277.36599v8.29893" fill="none" stroke="#157300" stroke-width="2" stroke-linecap="round"/><path d="M88.3836,278.98805c0,1.02085 -0.32089,1.8484 -0.71672,1.8484c-0.39584,0 -0.71672,-0.82756 -0.71672,-1.8484c0,-1.02085 0.32089,-1.8484 0.71672,-1.8484c0.39584,0 0.71672,0.82755 0.71672,1.8484z" fill="#da0000" stroke="#a90000" stroke-width="1" stroke-linecap="butt"/><path d="M89.99061,278.34087c0.3845,0.94566 0.39894,1.83314 0.03225,1.98223c-0.36668,0.14909 -0.97564,-0.49666 -1.36014,-1.44232c-0.3845,-0.94566 -0.39894,-1.83314 -0.03226,-1.98223c0.36668,-0.14909 0.97565,0.49666 1.36015,1.44232z" fill="#da0000" stroke="#a90000" stroke-width="1" stroke-linecap="butt"/><path d="M91.29174,276.45348c0.92361,0.43483 1.53565,1.07765 1.36704,1.43578c-0.16861,0.35813 -1.05402,0.29595 -1.97763,-0.13888c-0.92361,-0.43483 -1.53564,-1.07765 -1.36703,-1.43579c0.16861,-0.35813 1.05401,-0.29595 1.97762,0.13888z" fill="#da0000" stroke="#a90000" stroke-width="1" stroke-linecap="butt"/><path d="M90.81229,274.65035c1.02031,-0.03316 1.85784,0.26069 1.8707,0.65632c0.01286,0.39562 -0.80384,0.74322 -1.82415,0.77638c-1.02031,0.03316 -1.85784,-0.2607 -1.8707,-0.65632c-0.01286,-0.39562 0.80384,-0.74322 1.82415,-0.77637z" fill="#da0000" stroke="#a90000" stroke-width="1" stroke-linecap="butt"/><path d="M86.64755,272.64851c0,-1.02085 0.32089,-1.8484 0.71672,-1.8484c0.39584,0 0.71673,0.82755 0.71673,1.8484c0,1.02085 -0.32089,1.8484 -0.71673,1.8484c-0.39584,0 -0.71672,-0.82755 -0.71672,-1.8484z" data-paper-data="{&quot;index&quot;:null}" fill="#da0000" stroke="#a90000" stroke-width="1" stroke-linecap="butt"/><path d="M85.04055,273.29569c-0.3845,-0.94566 -0.39894,-1.83314 -0.03225,-1.98223c0.36668,-0.14909 0.97564,0.49666 1.36014,1.44232c0.3845,0.94566 0.39894,1.83314 0.03226,1.98223c-0.36668,0.14909 -0.97564,-0.49666 -1.36014,-1.44232z" data-paper-data="{&quot;index&quot;:null}" fill="#da0000" stroke="#a90000" stroke-width="1" stroke-linecap="butt"/><path d="M84.04119,275.18309c-0.92361,-0.43483 -1.53564,-1.07765 -1.36704,-1.43579c0.16861,-0.35813 1.05401,-0.29595 1.97762,0.13887c0.92361,0.43483 1.53565,1.07765 1.36704,1.43579c-0.16861,0.35813 -1.05402,0.29595 -1.97762,-0.13887z" data-paper-data="{&quot;index&quot;:null}" fill="#da0000" stroke="#a90000" stroke-width="1" stroke-linecap="butt"/><path d="M84.21887,276.98621c-1.02031,0.03316 -1.85784,-0.2607 -1.8707,-0.65632c-0.01286,-0.39562 0.80384,-0.74322 1.82415,-0.77637c1.02031,-0.03316 1.85784,0.26069 1.8707,0.65632c0.01286,0.39562 -0.80384,0.74322 -1.82415,0.77638z" data-paper-data="{&quot;index&quot;:null}" fill="#da0000" stroke="#a90000" stroke-width="1" stroke-linecap="butt"/><path d="M88.35695,273.0655c0.3732,-0.95018 0.9744,-1.60314 1.34284,-1.45844c0.36844,0.1447 0.36459,1.03229 -0.00861,1.98248c-0.3732,0.95018 -0.9744,1.60314 -1.34284,1.45844c-0.36844,-0.1447 -0.36459,-1.03229 0.00861,-1.98248z" data-paper-data="{&quot;index&quot;:null}" fill="#da0000" stroke="#a90000" stroke-width="1" stroke-linecap="butt"/><path d="M85.48112,278.55834c-0.78801,0.64897 -1.63081,0.92737 -1.88245,0.62182c-0.25164,-0.30555 0.18317,-1.07935 0.97118,-1.72832c0.78801,-0.64897 1.63081,-0.92736 1.88245,-0.62181c0.25164,0.30555 -0.18317,1.07934 -0.97118,1.72831z" data-paper-data="{&quot;index&quot;:null}" fill="#da0000" stroke="#a90000" stroke-width="1" stroke-linecap="butt"/><path d="M86.76047,279.59914c-0.5511,0.85931 -1.26797,1.38268 -1.60117,1.16899c-0.3332,-0.21369 -0.15655,-1.08353 0.39454,-1.94284c0.5511,-0.85931 1.26797,-1.38268 1.60117,-1.16899c0.3332,0.21369 0.15656,1.08353 -0.39454,1.94284z" data-paper-data="{&quot;index&quot;:null}" fill="#da0000" stroke="#a90000" stroke-width="1" stroke-linecap="butt"/><path d="M85.99613,276.31673c0,-0.88542 0.71778,-1.60321 1.6032,-1.60321c0.88542,0 1.6032,0.71778 1.6032,1.60321c0,0.88542 -0.71777,1.6032 -1.6032,1.6032c-0.88542,0 -1.6032,-0.71778 -1.6032,-1.6032z" fill="#832c00" stroke="#722600" stroke-width="1" stroke-linecap="butt"/></g><g><path d="M33.27948,267.6644c-1.15909,0.95458 -2.39878,1.36407 -2.76892,0.91463c-0.37014,-0.44944 0.26943,-1.58762 1.42852,-2.5422c1.15909,-0.95458 2.39878,-1.36407 2.76892,-0.91463c0.37014,0.44944 -0.26943,1.58763 -1.42852,2.54221z" data-paper-data="{&quot;index&quot;:null}" fill="#da0000" stroke="#a90000" stroke-width="1" stroke-linecap="butt"/><path d="M28.1161,272.45793v12.20699" fill="none" stroke="#157300" stroke-width="2" stroke-linecap="round"/><path d="M29.22583,274.84384c0,1.50157 -0.472,2.71883 -1.05424,2.71883c-0.58224,0 -1.05424,-1.21726 -1.05424,-2.71883c0,-1.50157 0.472,-2.71883 1.05424,-2.71883c0.58224,0 1.05424,1.21726 1.05424,2.71883z" fill="#da0000" stroke="#a90000" stroke-width="1" stroke-linecap="butt"/><path d="M31.58958,273.89189c0.56556,1.39099 0.5868,2.69639 0.04745,2.91568c-0.53936,0.2193 -1.43508,-0.73054 -2.00065,-2.12152c-0.56556,-1.39099 -0.58681,-2.69639 -0.04745,-2.91568c0.53936,-0.2193 1.43509,0.73054 2.00065,2.12152z" fill="#da0000" stroke="#a90000" stroke-width="1" stroke-linecap="butt"/><path d="M33.50344,271.11571c1.35854,0.63959 2.25879,1.58513 2.01079,2.11191c-0.24801,0.52678 -1.55036,0.43532 -2.90891,-0.20427c-1.35854,-0.63959 -2.25879,-1.58513 -2.01079,-2.11191c0.24801,-0.52678 1.55036,-0.43532 2.90891,0.20427z" fill="#da0000" stroke="#a90000" stroke-width="1" stroke-linecap="butt"/><path d="M32.7982,268.46347c1.50078,-0.04877 2.73272,0.38346 2.75163,0.96539c0.01891,0.58193 -1.18238,1.09321 -2.68316,1.14198c-1.50078,0.04877 -2.73273,-0.38345 -2.75164,-0.96538c-0.01891,-0.58193 1.18239,-1.09322 2.68316,-1.14198z" fill="#da0000" stroke="#a90000" stroke-width="1" stroke-linecap="butt"/><path d="M26.67225,265.51894c0,-1.50157 0.472,-2.71883 1.05424,-2.71883c0.58224,0 1.05424,1.21726 1.05424,2.71883c0,1.50157 -0.472,2.71883 -1.05424,2.71883c-0.58224,0 -1.05424,-1.21726 -1.05424,-2.71883z" data-paper-data="{&quot;index&quot;:null}" fill="#da0000" stroke="#a90000" stroke-width="1" stroke-linecap="butt"/><path d="M24.30848,266.47089c-0.56556,-1.39099 -0.5868,-2.69639 -0.04744,-2.91568c0.53936,-0.2193 1.43508,0.73054 2.00064,2.12152c0.56556,1.39099 0.58681,2.69639 0.04745,2.91568c-0.53936,0.2193 -1.43509,-0.73054 -2.00065,-2.12152z" data-paper-data="{&quot;index&quot;:null}" fill="#da0000" stroke="#a90000" stroke-width="1" stroke-linecap="butt"/><path d="M22.83852,269.24708c-1.35854,-0.63959 -2.2588,-1.58513 -2.01079,-2.11191c0.24801,-0.52678 1.55036,-0.43532 2.90891,0.20428c1.35854,0.63959 2.2588,1.58513 2.0108,2.11191c-0.24801,0.52678 -1.55037,0.43532 -2.90891,-0.20427z" data-paper-data="{&quot;index&quot;:null}" fill="#da0000" stroke="#a90000" stroke-width="1" stroke-linecap="butt"/><path d="M23.09987,271.89931c-1.50078,0.04877 -2.73272,-0.38346 -2.75163,-0.96539c-0.01891,-0.58193 1.18238,-1.09321 2.68316,-1.14198c1.50078,-0.04877 2.73272,0.38346 2.75163,0.96539c0.01891,0.58193 -1.18238,1.09321 -2.68316,1.14198z" data-paper-data="{&quot;index&quot;:null}" fill="#da0000" stroke="#a90000" stroke-width="1" stroke-linecap="butt"/><path d="M29.18661,266.13229c0.54894,-1.39763 1.43326,-2.35809 1.9752,-2.14524c0.54194,0.21285 0.53627,1.51841 -0.01266,2.91604c-0.54894,1.39763 -1.43326,2.35809 -1.9752,2.14524c-0.54194,-0.21285 -0.53627,-1.51841 0.01266,-2.91604z" data-paper-data="{&quot;index&quot;:null}" fill="#da0000" stroke="#a90000" stroke-width="1" stroke-linecap="butt"/><path d="M24.95653,274.21179c-1.15909,0.95457 -2.39878,1.36407 -2.76892,0.91463c-0.37014,-0.44944 0.26943,-1.58763 1.42852,-2.54221c1.15909,-0.95457 2.39878,-1.36406 2.76892,-0.91463c0.37014,0.44944 -0.26943,1.58763 -1.42852,2.5422z" data-paper-data="{&quot;index&quot;:null}" fill="#da0000" stroke="#a90000" stroke-width="1" stroke-linecap="butt"/><path d="M26.83834,275.74269c-0.81062,1.26396 -1.86507,2.0338 -2.35518,1.71948c-0.4901,-0.31432 -0.23028,-1.59377 0.58034,-2.85774c0.81062,-1.26396 1.86507,-2.03379 2.35518,-1.71947c0.4901,0.31432 0.23028,1.59377 -0.58034,2.85773z" data-paper-data="{&quot;index&quot;:null}" fill="#da0000" stroke="#a90000" stroke-width="1" stroke-linecap="butt"/><path d="M25.71407,270.91457c0,-1.30238 1.05579,-2.35817 2.35817,-2.35817c1.30238,0 2.35816,1.05579 2.35816,2.35817c0,1.30238 -1.05578,2.35817 -2.35816,2.35817c-1.30238,0 -2.35817,-1.05579 -2.35817,-2.35817z" fill="#832c00" stroke="#722600" stroke-width="1" stroke-linecap="butt"/></g><g><path d="M71.30672,259.74352c-1.65452,1.36259 -3.42408,1.94711 -3.95243,1.30557c-0.52835,-0.64154 0.38459,-2.26621 2.03911,-3.62881c1.65452,-1.36259 3.42407,-1.94711 3.95242,-1.30557c0.52835,0.64154 -0.38458,2.26621 -2.0391,3.62881z" data-paper-data="{&quot;index&quot;:null}" fill="#da0000" stroke="#a90000" stroke-width="1" stroke-linecap="butt"/><path d="M63.93638,266.58592v17.42458" fill="none" stroke="#157300" stroke-width="2" stroke-linecap="round"/><path d="M65.52043,269.99165c0,2.14338 -0.67374,3.88093 -1.50485,3.88093c-0.83111,0 -1.50485,-1.73755 -1.50485,-3.88093c0,-2.14338 0.67374,-3.88093 1.50485,-3.88093c0.83111,0 1.50485,1.73755 1.50485,3.88093z" fill="#da0000" stroke="#a90000" stroke-width="1" stroke-linecap="butt"/><path d="M68.89453,268.63282c0.8073,1.98553 0.83762,3.84889 0.06772,4.16192c-0.76989,0.31304 -2.04847,-1.04279 -2.85577,-3.02832c-0.8073,-1.98553 -0.83763,-3.84889 -0.06773,-4.16192c0.76989,-0.31304 2.04848,1.04279 2.85578,3.02832z" fill="#da0000" stroke="#a90000" stroke-width="1" stroke-linecap="butt"/><path d="M71.62641,264.67001c1.93921,0.91298 3.22426,2.26265 2.87025,3.01459c-0.35401,0.75194 -2.21303,0.62139 -4.15225,-0.29159c-1.93921,-0.91298 -3.22427,-2.26265 -2.87026,-3.01459c0.35401,-0.75194 2.21304,-0.62139 4.15225,0.29159z" fill="#da0000" stroke="#a90000" stroke-width="1" stroke-linecap="butt"/><path d="M70.61973,260.88414c2.14225,-0.06961 3.90076,0.54735 3.92776,1.37802c0.02699,0.83066 -1.68777,1.56048 -3.83001,1.63009c-2.14225,0.06961 -3.90076,-0.54735 -3.92775,-1.37802c-0.02699,-0.83066 1.68776,-1.56048 3.83001,-1.63009z" fill="#da0000" stroke="#a90000" stroke-width="1" stroke-linecap="butt"/><path d="M61.87538,256.68104c0,-2.14338 0.67374,-3.88093 1.50485,-3.88093c0.83111,0 1.50485,1.73755 1.50485,3.88093c0,2.14338 -0.67374,3.88093 -1.50485,3.88093c-0.83111,0 -1.50485,-1.73755 -1.50485,-3.88093z" data-paper-data="{&quot;index&quot;:null}" fill="#da0000" stroke="#a90000" stroke-width="1" stroke-linecap="butt"/><path d="M58.50129,258.03987c-0.8073,-1.98553 -0.83762,-3.84889 -0.06772,-4.16192c0.76989,-0.31304 2.04847,1.04279 2.85577,3.02832c0.8073,1.98553 0.83763,3.84889 0.06773,4.16192c-0.76989,0.31304 -2.04848,-1.04279 -2.85578,-3.02832z" data-paper-data="{&quot;index&quot;:null}" fill="#da0000" stroke="#a90000" stroke-width="1" stroke-linecap="butt"/><path d="M56.40303,262.00268c-1.93921,-0.91298 -3.22426,-2.26265 -2.87025,-3.01459c0.35401,-0.75194 2.21303,-0.62139 4.15224,0.29159c1.93921,0.91298 3.22427,2.26265 2.87026,3.01459c-0.35401,0.75194 -2.21304,0.62139 -4.15225,-0.29159z" data-paper-data="{&quot;index&quot;:null}" fill="#da0000" stroke="#a90000" stroke-width="1" stroke-linecap="butt"/><path d="M56.77608,265.78855c-2.14225,0.06961 -3.90076,-0.54735 -3.92775,-1.37802c-0.02699,-0.83066 1.68776,-1.56048 3.83001,-1.63009c2.14225,-0.06961 3.90077,0.54735 3.92776,1.37802c0.02699,0.83066 -1.68777,1.56048 -3.83002,1.63009z" data-paper-data="{&quot;index&quot;:null}" fill="#da0000" stroke="#a90000" stroke-width="1" stroke-linecap="butt"/><path d="M65.46446,257.55655c0.78357,-1.99502 2.04587,-3.36599 2.81945,-3.06216c0.77358,0.30383 0.76549,2.16741 -0.01808,4.16243c-0.78357,1.99502 -2.04587,3.366 -2.81946,3.06217c-0.77358,-0.30383 -0.76549,-2.16742 0.01808,-4.16244z" data-paper-data="{&quot;index&quot;:null}" fill="#da0000" stroke="#a90000" stroke-width="1" stroke-linecap="butt"/><path d="M59.42633,269.08943c-1.65452,1.36259 -3.42407,1.94711 -3.95242,1.30557c-0.52835,-0.64154 0.38459,-2.26622 2.0391,-3.62881c1.65452,-1.36259 3.42408,-1.9471 3.95243,-1.30556c0.52835,0.64154 -0.38459,2.26622 -2.03911,3.62881z" data-paper-data="{&quot;index&quot;:null}" fill="#da0000" stroke="#a90000" stroke-width="1" stroke-linecap="butt"/><path d="M62.11247,271.27468c-1.1571,1.80421 -2.66225,2.90309 -3.36184,2.45442c-0.69959,-0.44867 -0.32871,-2.27499 0.8284,-4.07921c1.1571,-1.80421 2.66225,-2.9031 3.36184,-2.45443c0.69959,0.44867 0.32871,2.275 -0.8284,4.07921z" data-paper-data="{&quot;index&quot;:null}" fill="#da0000" stroke="#a90000" stroke-width="1" stroke-linecap="butt"/><path d="M60.50765,264.3829c0,-1.85905 1.50707,-3.36612 3.36612,-3.36612c1.85905,0 3.36611,1.50707 3.36611,3.36612c0,1.85905 -1.50706,3.36611 -3.36611,3.36611c-1.85905,0 -3.36612,-1.50705 -3.36612,-3.36611z" fill="#832c00" stroke="#722600" stroke-width="1" stroke-linecap="butt"/></g><g><path d="M214.13948,296.6071c-0.78801,0.64897 -1.63081,0.92736 -1.88245,0.62181c-0.25164,-0.30555 0.18317,-1.07935 0.97118,-1.72832c0.78801,-0.64897 1.63081,-0.92736 1.88245,-0.62181c0.25164,0.30555 -0.18317,1.07935 -0.97118,1.72832z" data-paper-data="{&quot;index&quot;:null}" fill="#da0000" stroke="#a90000" stroke-width="1" stroke-linecap="butt"/><path d="M210.62915,299.86599v8.29893" fill="none" stroke="#157300" stroke-width="2" stroke-linecap="round"/><path d="M211.3836,301.48805c0,1.02085 -0.32089,1.8484 -0.71673,1.8484c-0.39583,0 -0.71672,-0.82756 -0.71672,-1.8484c0,-1.02085 0.32089,-1.8484 0.71672,-1.8484c0.39583,0 0.71673,0.82755 0.71673,1.8484z" fill="#da0000" stroke="#a90000" stroke-width="1" stroke-linecap="butt"/><path d="M212.9906,300.84087c0.3845,0.94566 0.39894,1.83314 0.03226,1.98223c-0.36669,0.14909 -0.97564,-0.49666 -1.36014,-1.44232c-0.3845,-0.94566 -0.39895,-1.83314 -0.03226,-1.98223c0.36669,-0.14909 0.97564,0.49666 1.36014,1.44232z" fill="#da0000" stroke="#a90000" stroke-width="1" stroke-linecap="butt"/><path d="M214.29174,298.95348c0.92361,0.43483 1.53565,1.07765 1.36704,1.43578c-0.16861,0.35813 -1.05402,0.29595 -1.97762,-0.13888c-0.92361,-0.43483 -1.53564,-1.07765 -1.36703,-1.43579c0.16861,-0.35813 1.05401,-0.29595 1.97762,0.13888z" fill="#da0000" stroke="#a90000" stroke-width="1" stroke-linecap="butt"/><path d="M213.81228,297.15035c1.02031,-0.03316 1.85784,0.26069 1.8707,0.65632c0.01286,0.39562 -0.80384,0.74322 -1.82415,0.77638c-1.02031,0.03316 -1.85784,-0.2607 -1.8707,-0.65632c-0.01286,-0.39562 0.80384,-0.74322 1.82415,-0.77637z" fill="#da0000" stroke="#a90000" stroke-width="1" stroke-linecap="butt"/><path d="M209.64755,295.14851c0,-1.02085 0.32089,-1.8484 0.71672,-1.8484c0.39583,0 0.71672,0.82755 0.71672,1.8484c0,1.02085 -0.32089,1.8484 -0.71672,1.8484c-0.39583,0 -0.71672,-0.82755 -0.71672,-1.8484z" data-paper-data="{&quot;index&quot;:null}" fill="#da0000" stroke="#a90000" stroke-width="1" stroke-linecap="butt"/><path d="M208.04054,295.79569c-0.3845,-0.94566 -0.39894,-1.83314 -0.03225,-1.98223c0.36669,-0.14909 0.97564,0.49666 1.36014,1.44232c0.3845,0.94566 0.39894,1.83314 0.03225,1.98223c-0.36669,0.14909 -0.97564,-0.49666 -1.36014,-1.44232z" data-paper-data="{&quot;index&quot;:null}" fill="#da0000" stroke="#a90000" stroke-width="1" stroke-linecap="butt"/><path d="M207.04118,297.68309c-0.92361,-0.43483 -1.53564,-1.07765 -1.36703,-1.43579c0.16861,-0.35813 1.05401,-0.29595 1.97762,0.13887c0.92361,0.43483 1.53564,1.07765 1.36704,1.43579c-0.16861,0.35813 -1.05402,0.29595 -1.97762,-0.13887z" data-paper-data="{&quot;index&quot;:null}" fill="#da0000" stroke="#a90000" stroke-width="1" stroke-linecap="butt"/><path d="M207.21886,299.48621c-1.02031,0.03316 -1.85784,-0.2607 -1.8707,-0.65632c-0.01286,-0.39562 0.80384,-0.74322 1.82415,-0.77637c1.02031,-0.03316 1.85784,0.26069 1.8707,0.65632c0.01286,0.39562 -0.80384,0.74322 -1.82415,0.77638z" data-paper-data="{&quot;index&quot;:null}" fill="#da0000" stroke="#a90000" stroke-width="1" stroke-linecap="butt"/><path d="M211.35694,295.5655c0.3732,-0.95018 0.9744,-1.60314 1.34284,-1.45844c0.36844,0.1447 0.36459,1.03229 -0.00861,1.98248c-0.3732,0.95018 -0.9744,1.60314 -1.34284,1.45844c-0.36844,-0.1447 -0.36458,-1.03229 0.00861,-1.98248z" data-paper-data="{&quot;index&quot;:null}" fill="#da0000" stroke="#a90000" stroke-width="1" stroke-linecap="butt"/><path d="M208.48112,301.05834c-0.78801,0.64897 -1.63081,0.92737 -1.88245,0.62182c-0.25164,-0.30555 0.18317,-1.07935 0.97118,-1.72832c0.78801,-0.64897 1.63081,-0.92736 1.88245,-0.62181c0.25164,0.30555 -0.18317,1.07934 -0.97118,1.72831z" data-paper-data="{&quot;index&quot;:null}" fill="#da0000" stroke="#a90000" stroke-width="1" stroke-linecap="butt"/><path d="M209.76047,302.09914c-0.5511,0.85931 -1.26797,1.38268 -1.60117,1.16899c-0.3332,-0.21369 -0.15656,-1.08353 0.39454,-1.94284c0.5511,-0.85931 1.26797,-1.38268 1.60116,-1.16899c0.3332,0.21369 0.15656,1.08353 -0.39454,1.94284z" data-paper-data="{&quot;index&quot;:null}" fill="#da0000" stroke="#a90000" stroke-width="1" stroke-linecap="butt"/><path d="M208.99613,298.81673c0,-0.88542 0.71777,-1.60321 1.6032,-1.60321c0.88542,0 1.6032,0.71778 1.6032,1.60321c0,0.88542 -0.71778,1.6032 -1.6032,1.6032c-0.88542,0 -1.6032,-0.71778 -1.6032,-1.6032z" fill="#832c00" stroke="#722600" stroke-width="1" stroke-linecap="butt"/></g><g><path d="M156.27948,290.1644c-1.15909,0.95458 -2.39878,1.36407 -2.76892,0.91463c-0.37014,-0.44944 0.26943,-1.58762 1.42852,-2.5422c1.15909,-0.95458 2.39878,-1.36407 2.76891,-0.91463c0.37014,0.44944 -0.26943,1.58763 -1.42852,2.54221z" data-paper-data="{&quot;index&quot;:null}" fill="#da0000" stroke="#a90000" stroke-width="1" stroke-linecap="butt"/><path d="M151.1161,294.95793v12.20699" fill="none" stroke="#157300" stroke-width="2" stroke-linecap="round"/><path d="M152.22582,297.34384c0,1.50157 -0.472,2.71883 -1.05424,2.71883c-0.58224,0 -1.05424,-1.21726 -1.05424,-2.71883c0,-1.50157 0.472,-2.71883 1.05424,-2.71883c0.58224,0 1.05424,1.21726 1.05424,2.71883z" fill="#da0000" stroke="#a90000" stroke-width="1" stroke-linecap="butt"/><path d="M154.58958,296.39189c0.56556,1.39099 0.5868,2.69639 0.04744,2.91568c-0.53936,0.2193 -1.43508,-0.73054 -2.00065,-2.12152c-0.56556,-1.39099 -0.58681,-2.69639 -0.04745,-2.91568c0.53936,-0.2193 1.43509,0.73054 2.00065,2.12152z" fill="#da0000" stroke="#a90000" stroke-width="1" stroke-linecap="butt"/><path d="M156.50344,293.61571c1.35854,0.63959 2.2588,1.58513 2.01079,2.11191c-0.248,0.52678 -1.55036,0.43532 -2.90891,-0.20427c-1.35854,-0.63959 -2.2588,-1.58513 -2.01079,-2.11191c0.248,-0.52678 1.55036,-0.43532 2.90891,0.20427z" fill="#da0000" stroke="#a90000" stroke-width="1" stroke-linecap="butt"/><path d="M155.7982,290.96347c1.50077,-0.04877 2.73273,0.38346 2.75164,0.96539c0.01891,0.58193 -1.18239,1.09321 -2.68316,1.14198c-1.50077,0.04877 -2.73273,-0.38345 -2.75164,-0.96538c-0.01891,-0.58193 1.18239,-1.09322 2.68316,-1.14198z" fill="#da0000" stroke="#a90000" stroke-width="1" stroke-linecap="butt"/><path d="M149.67224,288.01894c0,-1.50157 0.472,-2.71883 1.05424,-2.71883c0.58224,0 1.05424,1.21726 1.05424,2.71883c0,1.50157 -0.472,2.71883 -1.05424,2.71883c-0.58224,0 -1.05424,-1.21726 -1.05424,-2.71883z" data-paper-data="{&quot;index&quot;:null}" fill="#da0000" stroke="#a90000" stroke-width="1" stroke-linecap="butt"/><path d="M147.30847,288.97089c-0.56556,-1.39099 -0.5868,-2.69639 -0.04744,-2.91568c0.53936,-0.2193 1.43508,0.73054 2.00065,2.12152c0.56556,1.39099 0.58681,2.69639 0.04745,2.91568c-0.53936,0.2193 -1.43509,-0.73054 -2.00065,-2.12152z" data-paper-data="{&quot;index&quot;:null}" fill="#da0000" stroke="#a90000" stroke-width="1" stroke-linecap="butt"/><path d="M145.83852,291.74708c-1.35854,-0.63959 -2.25879,-1.58513 -2.01079,-2.11191c0.248,-0.52678 1.55036,-0.43532 2.90891,0.20428c1.35854,0.63959 2.2588,1.58513 2.01079,2.11191c-0.248,0.52678 -1.55037,0.43532 -2.90891,-0.20427z" data-paper-data="{&quot;index&quot;:null}" fill="#da0000" stroke="#a90000" stroke-width="1" stroke-linecap="butt"/><path d="M146.09987,294.39931c-1.50077,0.04877 -2.73272,-0.38346 -2.75163,-0.96539c-0.01891,-0.58193 1.18239,-1.09321 2.68316,-1.14198c1.50077,-0.04877 2.73273,0.38346 2.75164,0.96539c0.01891,0.58193 -1.18239,1.09321 -2.68316,1.14198z" data-paper-data="{&quot;index&quot;:null}" fill="#da0000" stroke="#a90000" stroke-width="1" stroke-linecap="butt"/><path d="M152.1866,288.63229c0.54893,-1.39763 1.43326,-2.35809 1.9752,-2.14524c0.54194,0.21285 0.53627,1.51841 -0.01267,2.91604c-0.54893,1.39763 -1.43326,2.35809 -1.9752,2.14524c-0.54194,-0.21285 -0.53627,-1.51841 0.01266,-2.91604z" data-paper-data="{&quot;index&quot;:null}" fill="#da0000" stroke="#a90000" stroke-width="1" stroke-linecap="butt"/><path d="M147.95653,296.71179c-1.15909,0.95457 -2.39878,1.36407 -2.76891,0.91463c-0.37014,-0.44944 0.26943,-1.58763 1.42852,-2.54221c1.15909,-0.95457 2.39878,-1.36406 2.76892,-0.91463c0.37014,0.44944 -0.26943,1.58763 -1.42852,2.5422z" data-paper-data="{&quot;index&quot;:null}" fill="#da0000" stroke="#a90000" stroke-width="1" stroke-linecap="butt"/><path d="M149.83834,298.24269c-0.81062,1.26396 -1.86507,2.0338 -2.35517,1.71948c-0.49011,-0.31432 -0.23028,-1.59377 0.58034,-2.85774c0.81062,-1.26396 1.86507,-2.03379 2.35518,-1.71947c0.49011,0.31432 0.23028,1.59377 -0.58034,2.85773z" data-paper-data="{&quot;index&quot;:null}" fill="#da0000" stroke="#a90000" stroke-width="1" stroke-linecap="butt"/><path d="M148.71406,293.41457c0,-1.30238 1.05579,-2.35817 2.35817,-2.35817c1.30238,0 2.35816,1.05579 2.35816,2.35817c0,1.30238 -1.05578,2.35817 -2.35816,2.35817c-1.30238,0 -2.35817,-1.05579 -2.35817,-2.35817z" fill="#832c00" stroke="#722600" stroke-width="1" stroke-linecap="butt"/></g><g><path d="M194.30672,282.24352c-1.65452,1.36259 -3.42408,1.94711 -3.95243,1.30557c-0.52835,-0.64154 0.38459,-2.26621 2.03911,-3.62881c1.65452,-1.36259 3.42407,-1.94711 3.95242,-1.30557c0.52835,0.64154 -0.38459,2.26621 -2.0391,3.62881z" data-paper-data="{&quot;index&quot;:null}" fill="#da0000" stroke="#a90000" stroke-width="1" stroke-linecap="butt"/><path d="M186.93638,289.08592v17.42458" fill="none" stroke="#157300" stroke-width="2" stroke-linecap="round"/><path d="M188.52043,292.49165c0,2.14338 -0.67374,3.88093 -1.50485,3.88093c-0.8311,0 -1.50485,-1.73755 -1.50485,-3.88093c0,-2.14338 0.67375,-3.88093 1.50485,-3.88093c0.8311,0 1.50485,1.73755 1.50485,3.88093z" fill="#da0000" stroke="#a90000" stroke-width="1" stroke-linecap="butt"/><path d="M191.89452,291.13282c0.8073,1.98553 0.83762,3.84889 0.06772,4.16192c-0.7699,0.31304 -2.04847,-1.04279 -2.85577,-3.02832c-0.8073,-1.98553 -0.83763,-3.84889 -0.06774,-4.16192c0.7699,-0.31304 2.04848,1.04279 2.85578,3.02832z" fill="#da0000" stroke="#a90000" stroke-width="1" stroke-linecap="butt"/><path d="M194.62641,287.17001c1.93921,0.91298 3.22427,2.26265 2.87026,3.01459c-0.35401,0.75194 -2.21304,0.62139 -4.15225,-0.29159c-1.93921,-0.91298 -3.22427,-2.26265 -2.87025,-3.01459c0.35401,-0.75194 2.21303,-0.62139 4.15225,0.29159z" fill="#da0000" stroke="#a90000" stroke-width="1" stroke-linecap="butt"/><path d="M193.61973,283.38414c2.14225,-0.06961 3.90076,0.54735 3.92775,1.37802c0.02699,0.83066 -1.68777,1.56048 -3.83001,1.63009c-2.14225,0.06961 -3.90076,-0.54735 -3.92775,-1.37802c-0.02699,-0.83066 1.68777,-1.56048 3.83001,-1.63009z" fill="#da0000" stroke="#a90000" stroke-width="1" stroke-linecap="butt"/><path d="M184.87538,279.18104c0,-2.14338 0.67374,-3.88093 1.50485,-3.88093c0.8311,0 1.50485,1.73755 1.50485,3.88093c0,2.14338 -0.67374,3.88093 -1.50485,3.88093c-0.8311,0 -1.50485,-1.73755 -1.50485,-3.88093z" data-paper-data="{&quot;index&quot;:null}" fill="#da0000" stroke="#a90000" stroke-width="1" stroke-linecap="butt"/><path d="M181.50129,280.53987c-0.8073,-1.98553 -0.83762,-3.84889 -0.06772,-4.16192c0.7699,-0.31304 2.04847,1.04279 2.85577,3.02832c0.8073,1.98553 0.83763,3.84889 0.06773,4.16192c-0.7699,0.31304 -2.04848,-1.04279 -2.85578,-3.02832z" data-paper-data="{&quot;index&quot;:null}" fill="#da0000" stroke="#a90000" stroke-width="1" stroke-linecap="butt"/><path d="M179.40302,284.50268c-1.93921,-0.91298 -3.22426,-2.26265 -2.87025,-3.01459c0.35401,-0.75194 2.21303,-0.62139 4.15224,0.29159c1.93921,0.91298 3.22427,2.26265 2.87026,3.01459c-0.35401,0.75194 -2.21304,0.62139 -4.15226,-0.29159z" data-paper-data="{&quot;index&quot;:null}" fill="#da0000" stroke="#a90000" stroke-width="1" stroke-linecap="butt"/><path d="M179.77608,288.28855c-2.14225,0.06961 -3.90076,-0.54735 -3.92775,-1.37802c-0.02699,-0.83066 1.68777,-1.56048 3.83001,-1.63009c2.14225,-0.06961 3.90076,0.54735 3.92776,1.37802c0.02699,0.83066 -1.68777,1.56048 -3.83002,1.63009z" data-paper-data="{&quot;index&quot;:null}" fill="#da0000" stroke="#a90000" stroke-width="1" stroke-linecap="butt"/><path d="M188.46446,280.05655c0.78357,-1.99502 2.04587,-3.36599 2.81945,-3.06216c0.77358,0.30383 0.76549,2.16741 -0.01808,4.16243c-0.78357,1.99502 -2.04588,3.366 -2.81946,3.06217c-0.77358,-0.30383 -0.76549,-2.16742 0.01808,-4.16244z" data-paper-data="{&quot;index&quot;:null}" fill="#da0000" stroke="#a90000" stroke-width="1" stroke-linecap="butt"/><path d="M182.42633,291.58943c-1.65452,1.36259 -3.42407,1.94711 -3.95242,1.30557c-0.52835,-0.64154 0.38458,-2.26622 2.0391,-3.62881c1.65452,-1.36259 3.42408,-1.9471 3.95243,-1.30556c0.52835,0.64154 -0.38459,2.26622 -2.03911,3.62881z" data-paper-data="{&quot;index&quot;:null}" fill="#da0000" stroke="#a90000" stroke-width="1" stroke-linecap="butt"/><path d="M185.11247,293.77468c-1.1571,1.80421 -2.66225,2.90309 -3.36184,2.45442c-0.69959,-0.44867 -0.32871,-2.27499 0.8284,-4.07921c1.1571,-1.80421 2.66225,-2.9031 3.36184,-2.45443c0.69959,0.44867 0.32871,2.275 -0.8284,4.07921z" data-paper-data="{&quot;index&quot;:null}" fill="#da0000" stroke="#a90000" stroke-width="1" stroke-linecap="butt"/><path d="M183.50765,286.8829c0,-1.85905 1.50706,-3.36612 3.36611,-3.36612c1.85905,0 3.36611,1.50707 3.36611,3.36612c0,1.85905 -1.50705,3.36611 -3.36611,3.36611c-1.85905,0 -3.36611,-1.50705 -3.36611,-3.36611z" fill="#832c00" stroke="#722600" stroke-width="1" stroke-linecap="butt"/></g><g><path d="M346.13948,334.6071c-0.78801,0.64897 -1.63081,0.92736 -1.88245,0.62181c-0.25164,-0.30555 0.18317,-1.07935 0.97118,-1.72832c0.78801,-0.64897 1.63081,-0.92736 1.88245,-0.62181c0.25164,0.30555 -0.18317,1.07935 -0.97118,1.72832z" data-paper-data="{&quot;index&quot;:null}" fill="#da0000" stroke="#a90000" stroke-width="1" stroke-linecap="butt"/><path d="M342.62915,337.86598v8.29893" fill="none" stroke="#157300" stroke-width="2" stroke-linecap="round"/><path d="M343.3836,339.48805c0,1.02084 -0.32089,1.8484 -0.71673,1.8484c-0.39584,0 -0.71673,-0.82756 -0.71673,-1.8484c0,-1.02084 0.32089,-1.8484 0.71673,-1.8484c0.39584,0 0.71673,0.82756 0.71673,1.8484z" fill="#da0000" stroke="#a90000" stroke-width="1" stroke-linecap="butt"/><path d="M344.99061,338.84087c0.3845,0.94566 0.39894,1.83314 0.03226,1.98223c-0.36668,0.14909 -0.97564,-0.49666 -1.36014,-1.44232c-0.3845,-0.94566 -0.39894,-1.83314 -0.03226,-1.98223c0.36668,-0.14909 0.97564,0.49666 1.36014,1.44232z" fill="#da0000" stroke="#a90000" stroke-width="1" stroke-linecap="butt"/><path d="M346.29174,336.95347c0.9236,0.43483 1.53564,1.07765 1.36704,1.43578c-0.16861,0.35813 -1.05402,0.29595 -1.97762,-0.13888c-0.9236,-0.43483 -1.53564,-1.07765 -1.36704,-1.43578c0.16861,-0.35813 1.05402,-0.29595 1.97762,0.13888z" fill="#da0000" stroke="#a90000" stroke-width="1" stroke-linecap="butt"/><path d="M345.81228,335.15035c1.0203,-0.03315 1.85785,0.26069 1.8707,0.65632c0.01286,0.39563 -0.80385,0.74322 -1.82415,0.77638c-1.0203,0.03315 -1.85785,-0.26069 -1.8707,-0.65632c-0.01286,-0.39563 0.80385,-0.74322 1.82415,-0.77638z" fill="#da0000" stroke="#a90000" stroke-width="1" stroke-linecap="butt"/><path d="M341.64755,333.14851c0,-1.02084 0.32089,-1.8484 0.71673,-1.8484c0.39584,0 0.71673,0.82756 0.71673,1.8484c0,1.02084 -0.32089,1.8484 -0.71673,1.8484c-0.39584,0 -0.71673,-0.82756 -0.71673,-1.8484z" data-paper-data="{&quot;index&quot;:null}" fill="#da0000" stroke="#a90000" stroke-width="1" stroke-linecap="butt"/><path d="M340.04054,333.79569c-0.3845,-0.94566 -0.39894,-1.83314 -0.03226,-1.98223c0.36668,-0.14909 0.97564,0.49666 1.36014,1.44232c0.3845,0.94566 0.39894,1.83314 0.03226,1.98223c-0.36668,0.14909 -0.97564,-0.49666 -1.36014,-1.44232z" data-paper-data="{&quot;index&quot;:null}" fill="#da0000" stroke="#a90000" stroke-width="1" stroke-linecap="butt"/><path d="M339.04119,335.68308c-0.9236,-0.43483 -1.53564,-1.07765 -1.36704,-1.43578c0.16861,-0.35813 1.05402,-0.29595 1.97762,0.13888c0.9236,0.43483 1.53565,1.07765 1.36704,1.43578c-0.16861,0.35813 -1.05402,0.29595 -1.97762,-0.13888z" data-paper-data="{&quot;index&quot;:null}" fill="#da0000" stroke="#a90000" stroke-width="1" stroke-linecap="butt"/><path d="M339.21887,337.48621c-1.0203,0.03315 -1.85785,-0.26069 -1.8707,-0.65632c-0.01286,-0.39563 0.80385,-0.74322 1.82415,-0.77638c1.0203,-0.03315 1.85785,0.26069 1.8707,0.65632c0.01286,0.39563 -0.80385,0.74322 -1.82415,0.77638z" data-paper-data="{&quot;index&quot;:null}" fill="#da0000" stroke="#a90000" stroke-width="1" stroke-linecap="butt"/><path d="M343.35694,333.5655c0.37319,-0.95018 0.9744,-1.60315 1.34284,-1.45844c0.36844,0.14471 0.36458,1.03229 -0.00861,1.98247c-0.37319,0.95018 -0.9744,1.60315 -1.34284,1.45844c-0.36844,-0.14471 -0.36458,-1.03229 0.00861,-1.98248z" data-paper-data="{&quot;index&quot;:null}" fill="#da0000" stroke="#a90000" stroke-width="1" stroke-linecap="butt"/><path d="M340.48112,339.05835c-0.78801,0.64897 -1.63081,0.92736 -1.88245,0.62181c-0.25164,-0.30555 0.18317,-1.07935 0.97118,-1.72832c0.78801,-0.64897 1.63081,-0.92736 1.88245,-0.62181c0.25164,0.30555 -0.18317,1.07935 -0.97118,1.72832z" data-paper-data="{&quot;index&quot;:null}" fill="#da0000" stroke="#a90000" stroke-width="1" stroke-linecap="butt"/><path d="M341.76047,340.09913c-0.5511,0.85931 -1.26797,1.38268 -1.60117,1.16899c-0.3332,-0.21369 -0.15656,-1.08353 0.39454,-1.94283c0.5511,-0.85931 1.26797,-1.38268 1.60117,-1.16899c0.3332,0.21369 0.15656,1.08353 -0.39454,1.94283z" data-paper-data="{&quot;index&quot;:null}" fill="#da0000" stroke="#a90000" stroke-width="1" stroke-linecap="butt"/><path d="M340.99613,336.81673c0,-0.88542 0.71778,-1.6032 1.6032,-1.6032c0.88542,0 1.6032,0.71778 1.6032,1.6032c0,0.88542 -0.71778,1.6032 -1.6032,1.6032c-0.88542,0 -1.6032,-0.71778 -1.6032,-1.6032z" fill="#832c00" stroke="#722600" stroke-width="1" stroke-linecap="butt"/></g><g><path d="M288.27948,328.1644c-1.15909,0.95458 -2.39878,1.36407 -2.76892,0.91463c-0.37014,-0.44944 0.26943,-1.58762 1.42852,-2.5422c1.15909,-0.95458 2.39878,-1.36407 2.76892,-0.91463c0.37014,0.44944 -0.26943,1.58762 -1.42852,2.5422z" data-paper-data="{&quot;index&quot;:null}" fill="#da0000" stroke="#a90000" stroke-width="1" stroke-linecap="butt"/><path d="M283.11609,332.95793v12.20699" fill="none" stroke="#157300" stroke-width="2" stroke-linecap="round"/><path d="M284.22583,335.34384c0,1.50157 -0.472,2.71883 -1.05424,2.71883c-0.58224,0 -1.05424,-1.21726 -1.05424,-2.71883c0,-1.50157 0.472,-2.71883 1.05424,-2.71883c0.58224,0 1.05424,1.21726 1.05424,2.71883z" fill="#da0000" stroke="#a90000" stroke-width="1" stroke-linecap="butt"/><path d="M286.58959,334.39189c0.56557,1.39099 0.58681,2.69638 0.04745,2.91568c-0.53936,0.2193 -1.43508,-0.73054 -2.00065,-2.12152c-0.56557,-1.39099 -0.58681,-2.69638 -0.04745,-2.91568c0.53936,-0.2193 1.43508,0.73054 2.00065,2.12152z" fill="#da0000" stroke="#a90000" stroke-width="1" stroke-linecap="butt"/><path d="M288.50344,331.6157c1.35854,0.6396 2.2588,1.58513 2.01079,2.11191c-0.24801,0.52678 -1.55037,0.43532 -2.90891,-0.20427c-1.35854,-0.6396 -2.2588,-1.58513 -2.01079,-2.11191c0.24801,-0.52678 1.55037,-0.43532 2.90891,0.20427z" fill="#da0000" stroke="#a90000" stroke-width="1" stroke-linecap="butt"/><path d="M287.7982,328.96347c1.50078,-0.04877 2.73272,0.38345 2.75163,0.96539c0.01891,0.58193 -1.18238,1.09321 -2.68316,1.14198c-1.50078,0.04877 -2.73272,-0.38345 -2.75163,-0.96539c-0.01891,-0.58193 1.18238,-1.09321 2.68316,-1.14198z" fill="#da0000" stroke="#a90000" stroke-width="1" stroke-linecap="butt"/><path d="M281.67224,326.01894c0,-1.50157 0.472,-2.71883 1.05424,-2.71883c0.58224,0 1.05424,1.21726 1.05424,2.71883c0,1.50157 -0.472,2.71883 -1.05424,2.71883c-0.58224,0 -1.05424,-1.21726 -1.05424,-2.71883z" data-paper-data="{&quot;index&quot;:null}" fill="#da0000" stroke="#a90000" stroke-width="1" stroke-linecap="butt"/><path d="M279.30849,326.97087c-0.56557,-1.39099 -0.58681,-2.69638 -0.04745,-2.91568c0.53936,-0.2193 1.43508,0.73054 2.00065,2.12152c0.56557,1.39099 0.58681,2.69638 0.04745,2.91568c-0.53936,0.2193 -1.43508,-0.73054 -2.00065,-2.12152z" data-paper-data="{&quot;index&quot;:null}" fill="#da0000" stroke="#a90000" stroke-width="1" stroke-linecap="butt"/><path d="M277.83851,329.74708c-1.35854,-0.6396 -2.2588,-1.58513 -2.01079,-2.11191c0.248,-0.52678 1.55037,-0.43532 2.90891,0.20428c1.35854,0.6396 2.2588,1.58513 2.01079,2.11191c-0.248,0.52678 -1.55037,0.43532 -2.90891,-0.20428z" data-paper-data="{&quot;index&quot;:null}" fill="#da0000" stroke="#a90000" stroke-width="1" stroke-linecap="butt"/><path d="M278.09987,332.39931c-1.50078,0.04877 -2.73273,-0.38345 -2.75164,-0.96538c-0.01891,-0.58193 1.18238,-1.09321 2.68316,-1.14198c1.50078,-0.04877 2.73273,0.38345 2.75164,0.96538c0.01891,0.58193 -1.18238,1.09321 -2.68316,1.14198z" data-paper-data="{&quot;index&quot;:null}" fill="#da0000" stroke="#a90000" stroke-width="1" stroke-linecap="butt"/><path d="M284.18661,326.63229c0.54893,-1.39763 1.43326,-2.35809 1.9752,-2.14524c0.54194,0.21285 0.53627,1.51841 -0.01266,2.91604c-0.54893,1.39763 -1.43326,2.35809 -1.9752,2.14524c-0.54194,-0.21285 -0.53627,-1.51841 0.01266,-2.91604z" data-paper-data="{&quot;index&quot;:null}" fill="#da0000" stroke="#a90000" stroke-width="1" stroke-linecap="butt"/><path d="M279.95653,334.71179c-1.15909,0.95458 -2.39878,1.36407 -2.76892,0.91463c-0.37014,-0.44944 0.26943,-1.58763 1.42852,-2.5422c1.15909,-0.95458 2.39878,-1.36407 2.76892,-0.91463c0.37014,0.44944 -0.26943,1.58763 -1.42852,2.5422z" data-paper-data="{&quot;index&quot;:null}" fill="#da0000" stroke="#a90000" stroke-width="1" stroke-linecap="butt"/><path d="M281.83833,336.24269c-0.81062,1.26396 -1.86507,2.0338 -2.35517,1.71948c-0.49011,-0.31432 -0.23028,-1.59377 0.58034,-2.85774c0.81062,-1.26396 1.86507,-2.0338 2.35517,-1.71948c0.49011,0.31432 0.23028,1.59377 -0.58034,2.85774z" data-paper-data="{&quot;index&quot;:null}" fill="#da0000" stroke="#a90000" stroke-width="1" stroke-linecap="butt"/><path d="M280.71405,331.41456c0,-1.30238 1.05579,-2.35817 2.35817,-2.35817c1.30238,0 2.35817,1.05579 2.35817,2.35817c0,1.30238 -1.05579,2.35817 -2.35817,2.35817c-1.30238,0 -2.35817,-1.05579 -2.35817,-2.35817z" fill="#832c00" stroke="#722600" stroke-width="1" stroke-linecap="butt"/></g><g><path d="M326.30672,320.24352c-1.65452,1.36259 -3.42408,1.94711 -3.95243,1.30557c-0.52835,-0.64154 0.38459,-2.26622 2.03911,-3.62881c1.65452,-1.36259 3.42407,-1.94711 3.95242,-1.30557c0.52835,0.64154 -0.38458,2.26622 -2.0391,3.62881z" data-paper-data="{&quot;index&quot;:null}" fill="#da0000" stroke="#a90000" stroke-width="1" stroke-linecap="butt"/><path d="M318.93638,327.08592v17.42458" fill="none" stroke="#157300" stroke-width="2" stroke-linecap="round"/><path d="M320.52043,330.49165c0,2.14338 -0.67375,3.88093 -1.50485,3.88093c-0.8311,0 -1.50485,-1.73755 -1.50485,-3.88093c0,-2.14338 0.67375,-3.88093 1.50485,-3.88093c0.8311,0 1.50485,1.73755 1.50485,3.88093z" fill="#da0000" stroke="#a90000" stroke-width="1" stroke-linecap="butt"/><path d="M323.89453,329.13281c0.8073,1.98553 0.83762,3.84889 0.06772,4.16193c-0.7699,0.31303 -2.04847,-1.04279 -2.85577,-3.02832c-0.8073,-1.98553 -0.83763,-3.84889 -0.06773,-4.16193c0.7699,-0.31303 2.04848,1.04279 2.85578,3.02832z" fill="#da0000" stroke="#a90000" stroke-width="1" stroke-linecap="butt"/><path d="M326.6264,325.17001c1.93922,0.91297 3.22426,2.26266 2.87025,3.0146c-0.35401,0.75194 -2.21303,0.62139 -4.15225,-0.29159c-1.93922,-0.91297 -3.22426,-2.26266 -2.87025,-3.0146c0.35401,-0.75194 2.21303,-0.62139 4.15225,0.29159z" fill="#da0000" stroke="#a90000" stroke-width="1" stroke-linecap="butt"/><path d="M325.61974,321.38414c2.14225,-0.06961 3.90076,0.54735 3.92776,1.37802c0.02699,0.83066 -1.68777,1.56048 -3.83001,1.63009c-2.14225,0.06961 -3.90076,-0.54735 -3.92776,-1.37802c-0.02699,-0.83066 1.68777,-1.56048 3.83001,-1.63009z" fill="#da0000" stroke="#a90000" stroke-width="1" stroke-linecap="butt"/><path d="M316.87539,317.18104c0,-2.14338 0.67375,-3.88093 1.50485,-3.88093c0.8311,0 1.50485,1.73755 1.50485,3.88093c0,2.14338 -0.67375,3.88093 -1.50485,3.88093c-0.8311,0 -1.50485,-1.73755 -1.50485,-3.88093z" data-paper-data="{&quot;index&quot;:null}" fill="#da0000" stroke="#a90000" stroke-width="1" stroke-linecap="butt"/><path d="M313.50129,318.53987c-0.8073,-1.98553 -0.83762,-3.84889 -0.06772,-4.16193c0.7699,-0.31303 2.04847,1.04279 2.85577,3.02832c0.8073,1.98553 0.83763,3.84889 0.06773,4.16193c-0.7699,0.31303 -2.04848,-1.04279 -2.85578,-3.02832z" data-paper-data="{&quot;index&quot;:null}" fill="#da0000" stroke="#a90000" stroke-width="1" stroke-linecap="butt"/><path d="M311.40303,322.50268c-1.93922,-0.91297 -3.22426,-2.26266 -2.87025,-3.0146c0.35401,-0.75194 2.21303,-0.62139 4.15225,0.29159c1.93922,0.91297 3.22427,2.26266 2.87026,3.0146c-0.35401,0.75194 -2.21304,0.62139 -4.15225,-0.29159z" data-paper-data="{&quot;index&quot;:null}" fill="#da0000" stroke="#a90000" stroke-width="1" stroke-linecap="butt"/><path d="M311.77609,326.28855c-2.14225,0.06961 -3.90076,-0.54735 -3.92776,-1.37802c-0.02699,-0.83066 1.68777,-1.56048 3.83001,-1.63009c2.14225,-0.06961 3.90076,0.54735 3.92776,1.37802c0.02699,0.83066 -1.68777,1.56048 -3.83001,1.63009z" data-paper-data="{&quot;index&quot;:null}" fill="#da0000" stroke="#a90000" stroke-width="1" stroke-linecap="butt"/><path d="M320.46446,318.05655c0.78356,-1.99502 2.04587,-3.36599 2.81945,-3.06216c0.77358,0.30383 0.76549,2.16741 -0.01808,4.16243c-0.78356,1.99502 -2.04587,3.366 -2.81945,3.06217c-0.77358,-0.30383 -0.76549,-2.16742 0.01808,-4.16244z" data-paper-data="{&quot;index&quot;:null}" fill="#da0000" stroke="#a90000" stroke-width="1" stroke-linecap="butt"/><path d="M314.42633,329.58943c-1.65452,1.36259 -3.42407,1.94711 -3.95242,1.30557c-0.52835,-0.64154 0.38458,-2.26622 2.0391,-3.62881c1.65452,-1.36259 3.42408,-1.9471 3.95243,-1.30556c0.52835,0.64154 -0.38459,2.26622 -2.03911,3.6288z" data-paper-data="{&quot;index&quot;:null}" fill="#da0000" stroke="#a90000" stroke-width="1" stroke-linecap="butt"/><path d="M317.11248,331.77468c-1.1571,1.80422 -2.66225,2.90309 -3.36184,2.45442c-0.69959,-0.44867 -0.32871,-2.27499 0.82839,-4.07921c1.1571,-1.80422 2.66225,-2.90309 3.36184,-2.45442c0.69959,0.44867 0.32871,2.27499 -0.82839,4.07921z" data-paper-data="{&quot;index&quot;:null}" fill="#da0000" stroke="#a90000" stroke-width="1" stroke-linecap="butt"/><path d="M315.50766,324.8829c0,-1.85905 1.50706,-3.36611 3.36611,-3.36611c1.85905,0 3.36611,1.50706 3.36611,3.36611c0,1.85905 -1.50706,3.36611 -3.36611,3.36611c-1.85905,0 -3.36611,-1.50706 -3.36611,-3.36611z" fill="#832c00" stroke="#722600" stroke-width="1" stroke-linecap="butt"/></g><path d="M134.00001,348.37508v-42h93v42z" fill="#662800" stroke="#005209" stroke-width="4.5" stroke-linecap="butt"/><path d="M-3.51947,4.19198v-17.5h503v17.5z" fill="#005209" stroke="#005209" stroke-width="4.5" stroke-linecap="butt"/><path d="M527.03756,344.4357v37h-451.44344c0.57036,-0.18685 1.169,-0.45026 1.81391,-0.81878c0.79545,-0.45455 0.71581,-1.73854 1.36364,-2.38636c0.64783,-0.64783 1.93182,-0.56818 2.38636,-1.36364c2.19282,-3.83744 1.23687,-8.3592 -0.02728,-12.15165c-0.3312,-0.9936 -2.2102,-2.46606 -2.0453,-3.40883c0.51107,-2.92184 5.54361,-5.1949 4.82258,-8.43952c-0.77315,-3.47917 -2.08863,-6.28624 -3.90713,-8.43122z" fill="#662800" stroke="#005209" stroke-width="4.5" stroke-linecap="butt"/><path d="M-30.51948,366.93697v-379.87988h30.54354v374.03255l-1.04354,3.28542c0.07603,0.8233 0.05012,1.6853 -0.01576,2.56191z" fill="#662800" stroke="#000000" stroke-width="0" stroke-linecap="butt"/><path d="M476.50002,387.87508v-419h55v419z" fill="#662800" stroke="#828282" stroke-width="4.5" stroke-linecap="butt"/><path d="M-1.99998,299.37507v-13h111v13z" fill="#662800" stroke="#005209" stroke-width="4.5" stroke-linecap="butt"/><path d="M272.87047,280.54053l-5.57974,-14.99555l121.83884,-45.33538l5.57974,14.99555z" fill="#662800" stroke="#005209" stroke-width="4.5" stroke-linecap="butt"/><path d="M-14.99997,204.37508v-12h380.46293c-0.30631,0.94704 -0.47144,1.95479 -0.47144,3c0,2.27766 0.78415,4.37746 2.1046,6.05873c-0.02979,0.30987 -0.04502,0.62384 -0.04502,0.94127c0,0.68493 0.07091,1.35378 0.20599,2z" fill="#662800" stroke="#005209" stroke-width="4.5" stroke-linecap="butt"/><path d="M479.00003,196.37508v12h-75.64591c0.06854,-0.2119 0.13,-0.42684 0.18414,-0.64455c1.46626,-1.72779 2.34688,-3.94175 2.34688,-6.35545c0,-1.82144 -0.50148,-3.52913 -1.37767,-5z" fill="#662800" stroke="#005209" stroke-width="4.5" stroke-linecap="butt"/><path d="M52.00002,152.37508v-17h428v17z" fill="#662800" stroke="#005209" stroke-width="4.5" stroke-linecap="butt"/><path d="M131.00001,104.37508v-47h11v47z" fill="#662800" stroke="#005209" stroke-width="4.5" stroke-linecap="butt"/><path d="M131.00001,56.37508v-19h68v19z" fill="#662800" stroke="#005209" stroke-width="4.5" stroke-linecap="butt"/><path d="M84.00002,107.37508v-106h9v106z" fill="#662800" stroke="#005209" stroke-width="4.5" stroke-linecap="butt"/><path d="M191.00002,56.37508v-58h18v58z" fill="#662800" stroke="#005209" stroke-width="4.5" stroke-linecap="butt"/><path d="M-6.01948,378.37508v-31h56v31z" fill="#662800" stroke="#005209" stroke-width="4.5" stroke-linecap="butt"/></g></g></svg>